# xmcd CD database file
#
# Track frame offsets:
#	150
#	26407
#	50806
#	71554
#	110067
#	141828
#	175450
#	215771
#
# Disc length: 3423 seconds
#
# Revision: 2
# Processed by: cddbd v1.5.2PL0 Copyright (c) Steve Scherf et al.
# Submitted via: CDex 1.51
#
DISCID=7f0d5d08
DTITLE=Patrick Bernard - Chakra Celebration
DYEAR=2006
DGENRE=New Age
TTITLE0=Om Hari Om
TTITLE1=Shiva Shakti
TTITLE2=Sita Ram
TTITLE3=Rhada Govinda
TTITLE4=Om Tara
TTITLE5=Ganesha
TTITLE6=Maha Mantra
TTITLE7=Brahma Gayatri Mantra
EXTD=Pour meditation YEAR: 2006
EXTT0=
EXTT1=
EXTT2=
EXTT3=
EXTT4=
EXTT5=
EXTT6=
EXTT7=
PLAYORDER=
